<svg xmlns="http://www.w3.org/2000/svg" width="26" height="26" viewBox="0 0 24 24" fill="#d50000">
  <path d="M7.75 2h8.5A5.76 5.76 0 0 1 22 7.75v8.5A5.76 5.76 0 0 1 16.25 22h-8.5A5.76 5.76 0 0 1 2 16.25v-8.5A5.76 5.76 0 0 1 7.75 2zm0 1.5A4.26 4.26 0 0 0 3.5 7.75v8.5A4.26 4.26 0 0 0 7.75 20.5h8.5a4.26 4.26 0 0 0 4.25-4.25v-8.5A4.26 4.26 0 0 0 16.25 3.5h-8.5zm4.25 3.25a5.5 5.5 0 1 1-5.5 5.5 5.51 5.51 0 0 1 5.5-5.5zm0 1.5a4 4 0 1 0 4 4 4 4 0 0 0-4-4zm5.75-.75a1.25 1.25 0 1 1-1.25 1.25 1.25 1.25 0 0 1 1.25-1.25z"></path>
</svg>
